<svg xmlns="http://www.w3.org/2000/svg" width="387" height="103.67" viewBox="0 0 387 103.67">
  <g id="salf_logo_final" data-name="salf logo final" transform="translate(0 0)">
    <g id="SALF_logo" data-name="SALF logo" transform="translate(160 34.493)">
      <path id="Path_1" data-name="Path 1" d="M48.862,52.969c0-2.5,2.4-5.589,7.053-5.589a19.987,19.987,0,0,1,3.622.671c.336,0,.673-.336,1.176-.336.815,0,2.638,1.847,2.638,3.863a1.515,1.515,0,0,1-1.415,1.63c-1.608,0-2.543-2.735-5.038-2.735-.744,0-1.535.336-1.535,1.2,0,1.9,3.286,1.392,6.069,3.238a4.414,4.414,0,0,1,2.231,3.983c0,2.807-2.3,5.973-7.892,5.973a14.561,14.561,0,0,1-5.662-1.152c-1.152-.647-1.7-3.191-1.7-4.414,0-.648.288-1.3,1.008-1.3,1.7,0,1.416,3.815,5.83,3.815.528,0,1.847-.265,1.847-1.176,0-1.727-3.287-1.3-5.949-3.43A5.509,5.509,0,0,1,48.862,52.969Z" transform="translate(-48.238 -47.068)" fill="#2e3192"/>
      <path id="Path_2" data-name="Path 2" d="M80.566,47.66a12.358,12.358,0,0,0,4.055-.48c1.367,0,1.942,2.352,1.942,3.406,0,.792-.311,1.728-1.247,1.728-1.9,0-.359-2.3-4.918-2.3-2.663,0-2.4.48-2.4,3.239,0,1.392.072,1.439,1.536,1.439,1.824,0,.456-2.663,2.159-2.663,1.392,0,1.487,2.71,1.487,3.646,0,.984-.168,3.863-1.607,3.863-1.488,0,0-2.519-2.422-2.519-1.008,0-.984.912-.984,1.68,0,3.5.24,3.334,2.76,3.334,4.918,0,3.527-3.382,5.494-3.382.767,0,1.152.863,1.152,1.536,0,1.631-1.3,4.558-2.255,4.558-.168,0-.552-.072-1.055-.144-.528-.048-1.2-.12-2.016-.12H72.386c-1.583,0-1.608-.719-1.608-1.031,0-1.32,1.631-.263,1.8-2.807a43.37,43.37,0,0,0,.072-8.277c-.168-3.67-1.991-1.776-1.991-3.478,0-1.463,2.016-1.223,3-1.223Z" transform="translate(-54.395 -47.012)" fill="#2e3192"/>
      <path id="Path_3" data-name="Path 3" d="M99.165,55.844c.744-1.656,1.727-3.766,1.727-5.662a2.593,2.593,0,0,1,2.9-2.9c2.087,0,3.407,2.135,4.342,3.719.408.7,4.03,8.036,4.894,10,.791,1.824,2.087.72,2.087,2.088,0,1.75-3.407,1.679-4.606,1.679-3.43,0-5.494-.024-5.494-1.511,0-1.152,1.463-.72,1.463-1.56,0-1.079-.6-1.175-4.462-1.175-1.248,0-1.991.048-1.991,1.224,0,.935,1.536.311,1.536,1.559,0,1.439-2.592,1.463-3.552,1.463-3.43,0-3.742-.647-3.742-1.416,0-1.128,1.295-.791,1.991-1.656a13.876,13.876,0,0,0,1.392-2.567Zm5.037,1.727c.24,0,.96.048.96-.312a8.264,8.264,0,0,0-.888-1.942c-.216-.385-.624-1.272-1.152-1.272-.576,0-.983,1.439-1.08,1.7a8.4,8.4,0,0,0-.5,1.488c0,.408.6.336.864.336Z" transform="translate(-60.928 -47.04)" fill="#2e3192"/>
      <path id="Path_4" data-name="Path 4" d="M138.431,55.844c.744-1.656,1.727-3.766,1.727-5.662a2.593,2.593,0,0,1,2.9-2.9c2.087,0,3.407,2.135,4.342,3.719.408.7,4.03,8.036,4.894,10,.791,1.824,2.087.72,2.087,2.088,0,1.75-3.407,1.679-4.606,1.679-3.43,0-5.494-.024-5.494-1.511,0-1.152,1.463-.72,1.463-1.56,0-1.079-.6-1.175-4.462-1.175-1.248,0-1.991.048-1.991,1.224,0,.935,1.535.311,1.535,1.559,0,1.439-2.591,1.463-3.551,1.463-3.43,0-3.743-.647-3.743-1.416,0-1.128,1.3-.791,1.991-1.656a13.875,13.875,0,0,0,1.392-2.567Zm5.037,1.727c.24,0,.959.048.959-.312a8.261,8.261,0,0,0-.887-1.942c-.216-.385-.624-1.272-1.152-1.272-.576,0-.982,1.439-1.079,1.7a8.4,8.4,0,0,0-.5,1.488c0,.408.6.336.864.336Z" transform="translate(-71.791 -47.04)" fill="#2e3192"/>
      <path id="Path_5" data-name="Path 5" d="M164.81,54.964c0-3.047-.24-3.743-.5-4.079-.552-.7-1.488-.767-1.488-1.679,0-1.728,4.894-1.728,5.374-1.728,1.439,0,4.39.049,4.39,1.68,0,.864-.912.814-1.463,1.439-.456.527-.48,2.686-.48,4.366v2.375c0,4.271.288,4.175.767,4.463.6.359,1.175.479,1.175,1.223,0,.719-.216,1.8-5.469,1.8-1.008,0-4.031-.024-4.031-1.559,0-.768.816-.888,1.2-1.345.288-.336.528-1.222.528-4.582Z" transform="translate(-79.893 -47.095)" fill="#2e3192"/>
      <path id="Path_6" data-name="Path 6" d="M179.07,52.769c0-3.719-1.824-2.184-1.824-3.67,0-1.319,1.871-1.487,2.83-1.487.5,0,.984.048,1.488.071a14.631,14.631,0,0,0,1.463.1c.768,0,1.535-.048,2.327-.1.768-.023,1.56-.071,2.328-.071,2.711,0,5.854,1.2,5.854,4.389A3.767,3.767,0,0,1,191.5,55.48c-.216.12-.383.192-.383.48,0,.36.313.456.6.576,1.679.624,2.422,1.727,2.759,4.318.288,2.231,1.847.887,1.847,2.35,0,.911-1.1,1.872-3.815,1.872-3.839,0-4.318-2.208-5.062-5.374-.264-1.1-.671-2.183-1.991-2.183-.528,0-.72.072-.72,1.584a14.969,14.969,0,0,0,.169,2.327c.191,1.1,1.416.767,1.416,1.919,0,.864-.6,1.511-4.486,1.511-1.152,0-4.558,0-4.558-1.751,0-1.248,1.8-.384,1.8-3.5Zm5.565,1.055c-.048.624-.168,1.152.624,1.152,1.559,0,2.063-.864,2.063-2.35,0-1.176-.288-2.376-1.68-2.376-.888,0-.863.553-.911,1.3Z" transform="translate(-83.884 -47.132)" fill="#2e3192"/>
      <path id="Path_7" data-name="Path 7" d="M224.638,57.552c0-4.846,6.574-4.414,6.574-6.406a.617.617,0,0,0-.576-.647c-.216,0-.336.168-.624.168a.528.528,0,0,1-.5-.528c0-1.319,2.159-1.944,3.191-1.944,1.822,0,3.622,1.1,3.622,3.1,0,3.047-3.575,3.863-3.575,4.582,0,.7,1.8.791,1.8,2.88,0,2.566-3.455,6-9.98,6-6.31,0-9.812-3.358-9.812-6.765,0-3.024,2.639-3.5,2.639-3.983,0-.288-.864-1.44-.864-2.543,0-2.639,2.975-4.511,5.974-4.511,1.343,0,4.222.551,4.222,2.327a1.494,1.494,0,0,1-1.367,1.392c-.72,0-1.272-1.008-2.424-1.008a1.533,1.533,0,0,0-1.463,1.656c0,2.352,2.616.768,2.616,2.423,0,2.856-2.783.935-2.783,3.119a5.179,5.179,0,0,0,4.75,4.966c1.607,0,3.646-1.056,3.646-2.9a1.52,1.52,0,0,0-1.607-1.465c-1.512,0-1.608,1.8-2.376,1.8C224.973,59.255,224.638,58.152,224.638,57.552Z" transform="translate(-94.262 -46.948)" fill="#2e3192"/>
      <path id="Path_8" data-name="Path 8" d="M257.8,64.559c-.767,0-1.991.048-1.991-1.055,0-1.488,1.871-.24,1.944-3.024.048-1.751.048-3.286.048-4.7,0-1.439-.12-2.783-.168-4.126-.048-2.016-2.159-.96-2.159-2.327,0-1.751,3.766-1.848,4.942-1.848,4.8,0,5.039.816,5.039,1.632,0,1.391-1.9.336-1.9,2.591V59.33c0,1.727.288,2.567,1.991,2.567,4.078,0,2.687-3.335,4.223-3.335,1.079,0,1.486,1.152,1.486,2.064,0,1.871-1.343,4.27-2.446,4.27a6.817,6.817,0,0,1-1.2-.168,8.324,8.324,0,0,0-1.8-.168Z" transform="translate(-105.528 -47.095)" fill="#2e3192"/>
      <path id="Path_9" data-name="Path 9" d="M281.961,55.844c.744-1.656,1.727-3.766,1.727-5.662a2.593,2.593,0,0,1,2.9-2.9c2.087,0,3.407,2.135,4.342,3.719.408.7,4.03,8.036,4.894,10,.791,1.824,2.087.72,2.087,2.088,0,1.75-3.407,1.679-4.606,1.679-3.43,0-5.494-.024-5.494-1.511,0-1.152,1.463-.72,1.463-1.56,0-1.079-.6-1.175-4.461-1.175-1.248,0-1.991.048-1.991,1.224,0,.935,1.535.311,1.535,1.559,0,1.439-2.591,1.463-3.551,1.463-3.43,0-3.742-.647-3.742-1.416,0-1.128,1.295-.791,1.991-1.656a13.873,13.873,0,0,0,1.392-2.567ZM287,57.572c.24,0,.96.048.96-.312a8.263,8.263,0,0,0-.888-1.942c-.216-.385-.624-1.272-1.152-1.272-.576,0-.983,1.439-1.08,1.7a8.4,8.4,0,0,0-.5,1.488c0,.408.6.336.864.336Z" transform="translate(-111.502 -47.04)" fill="#2e3192"/>
      <path id="Path_10" data-name="Path 10" d="M319.185,53.524c.288.24,1.056.936,1.488.936.6,0,.624-.984.624-1.392a8.217,8.217,0,0,0-.216-2.183c-.336-1.008-1.608-.647-1.608-1.943,0-1.535,2.447-1.464,3.455-1.464,1.055,0,3.67-.12,3.67,1.536,0,1.367-1.272.864-1.679,1.967a11.4,11.4,0,0,0-.312,3.262v6.214c0,1.079.145,4.366-1.463,4.366a1.979,1.979,0,0,1-1.248-.6l-7.413-6.645c-.336-.312-.959-.888-1.463-.888-.744,0-.768,1.56-.768,2.064a10.948,10.948,0,0,0,.168,2.184c.36,1.535,1.633.959,1.633,2.135,0,1.607-2.472,1.751-3.6,1.751-1.1,0-3.574-.144-3.574-1.7,0-1.271,1.391-.767,1.631-2.3a25.8,25.8,0,0,0,.216-3.622,34.4,34.4,0,0,0-.264-5.207c-.383-2.4-2.111-1.463-2.111-2.9,0-1.7,3.238-1.608,4.318-1.608a3.117,3.117,0,0,1,2.83,1.056Z" transform="translate(-119.604 -47.094)" fill="#2e3192"/>
      <path id="Path_11" data-name="Path 11" d="M337.46,51.714c.048-2.471-1.751-1.272-1.751-2.831,0-1.1,1.391-1.271,2.231-1.271h7.821c6.67,0,8.852,4.126,8.852,8.444,0,4.462-2.615,8.66-8.684,8.66-1.031,0-1.894-.024-2.638-.072-.744-.023-1.392-.048-2.064-.048s-1.368.025-2.039.048c-.672.048-1.344.072-2.039.072-.816,0-1.848-.408-1.848-1.367,0-1.728,1.9.192,1.968-3.311Zm5.758,8.781c0,1.224.192,1.727,1.487,1.727,3.023,0,3.55-3.1,3.55-5.494,0-5.613-2.111-6.5-3.958-6.5-1.007,0-1.079.408-1.079,1.319Z" transform="translate(-127.613 -47.132)" fill="#2e3192"/>
      <g id="Group_2" data-name="Group 2" transform="translate(0 23.876)">
        <g id="Group_1" data-name="Group 1" transform="translate(179.841 0.062)">
          <path id="Path_12" data-name="Path 12" d="M298.934,95.773c-.7,0-1.823.043-1.823-.966,0-1.362,1.714-.22,1.779-2.768.044-1.6.044-3.009.044-4.306,0-1.318-.11-2.548-.154-3.778-.043-1.846-1.977-.879-1.977-2.131,0-1.6,3.449-1.692,4.525-1.692,4.394,0,4.613.747,4.613,1.494,0,1.274-1.735.307-1.735,2.372v6.986c0,1.582.263,2.351,1.823,2.351,3.735,0,2.461-3.054,3.867-3.054.988,0,1.361,1.055,1.361,1.889,0,1.713-1.23,3.91-2.24,3.91a6.222,6.222,0,0,1-1.1-.154,7.622,7.622,0,0,0-1.648-.153Z" transform="translate(-296.803 -80.067)" fill="#2e3192"/>
          <path id="Path_13" data-name="Path 13" d="M325.295,80.349a7.68,7.68,0,0,0,1.714-.154,2.647,2.647,0,0,1,.9-.153c.856,0,2.636,1.691,2.636,4.064a1.609,1.609,0,0,1-1.691,1.824c-1.912,0-1.889-2.593-3.01-2.593-.856,0-.769,1.187-.769,1.362v6.745c0,2.613,2.021,1.362,2.021,2.9,0,.681-.417,1.647-4.525,1.647-1.12,0-5.228.045-5.228-1.647,0-1.165,1.361-.7,1.8-1.537a8.915,8.915,0,0,0,.33-2.329l.175-4.855c.088-2.306-.374-2.285-.681-2.285-.988,0-1.471,2.593-3.251,2.593a1.465,1.465,0,0,1-1.362-1.582c0-1.867,1.582-4.305,2.834-4.305A5.652,5.652,0,0,1,318,80.2a11.339,11.339,0,0,0,1.889.154Z" transform="translate(-301.659 -80.042)" fill="#2e3192"/>
          <path id="Path_14" data-name="Path 14" d="M339.137,84.011c.044-2.263-1.6-1.165-1.6-2.593,0-1.01,1.273-1.164,2.043-1.164h7.161c6.107,0,8.106,3.778,8.106,7.732,0,4.086-2.394,7.931-7.952,7.931-.945,0-1.735-.022-2.416-.067-.681-.021-1.275-.043-1.889-.043s-1.252.022-1.868.043c-.615.044-1.23.067-1.867.067-.747,0-1.692-.374-1.692-1.253,0-1.582,1.736.176,1.8-3.031Zm5.272,8.039c0,1.121.176,1.582,1.363,1.582,2.767,0,3.251-2.834,3.251-5.031,0-5.14-1.933-5.952-3.625-5.952-.922,0-.989.373-.989,1.208Z" transform="translate(-307.969 -80.101)" fill="#2e3192"/>
        </g>
        <path id="Path_15" data-name="Path 15" d="M50.122,86.749a25.314,25.314,0,0,0-.067-3.188c-.265-1.9-1.7-1.085-1.7-2.3,0-.841.974-1.195,1.682-1.195.576,0,4.56.221,6.4.221.443,0,4.893-.221,5.2-.221.863,0,1.771,1.815,1.771,3.321,0,.752-.354,1.527-1.195,1.527-1.528,0-.731-2.28-4.981-2.28-1.351,0-1.926-.111-1.926,3.1,0,.4.022.775,1.306.775,1.7,0,.621-2.036,2.17-2.036,1.261,0,1.35,2.412,1.35,3.276,0,1.041-.111,3.719-1.615,3.719-1.417,0,.044-2.5-2.325-2.5-.974,0-.841.177-.863,2.458-.088,3.275,2.147,1.46,2.147,3.143,0,.509.2,1.483-5.179,1.483-3.543,0-4.118-.509-4.118-1.461,0-1.239,1.195-.664,1.66-1.837a12.467,12.467,0,0,0,.288-2.922Z" transform="translate(-48.174 -79.986)" fill="#2e3192"/>
        <path id="Path_16" data-name="Path 16" d="M69.747,87.97c0-4.694,3.741-8.013,8.567-8.013a8.422,8.422,0,0,1,8.455,8.234c0,4.759-4.2,7.9-8.72,7.9A8.02,8.02,0,0,1,69.747,87.97ZM77.3,83.255c-1.24,0-1.86,1.284-1.86,2.369,0,1.881,1.329,7.172,3.72,7.172,1.35,0,1.926-1.173,1.926-2.369C81.081,88.412,79.886,83.255,77.3,83.255Z" transform="translate(-54.143 -79.956)" fill="#2e3192"/>
        <path id="Path_17" data-name="Path 17" d="M96.154,84.731c0-3.431-1.682-2.014-1.682-3.387,0-1.217,1.727-1.372,2.612-1.372.464,0,.908.044,1.372.065a13.451,13.451,0,0,0,1.35.09c.709,0,1.416-.044,2.147-.09.709-.021,1.439-.065,2.148-.065,2.5,0,5.4,1.107,5.4,4.05a3.477,3.477,0,0,1-1.882,3.21c-.2.111-.354.177-.354.443,0,.333.289.421.554.532,1.549.576,2.235,1.593,2.545,3.984.265,2.059,1.7.819,1.7,2.169,0,.841-1.018,1.727-3.52,1.727-3.542,0-3.985-2.038-4.671-4.959-.244-1.018-.619-2.014-1.837-2.014-.487,0-.665.067-.665,1.462a13.829,13.829,0,0,0,.156,2.147c.176,1.018,1.306.708,1.306,1.771,0,.8-.553,1.394-4.139,1.394-1.063,0-4.206,0-4.206-1.615,0-1.152,1.66-.354,1.66-3.232Zm5.135.974c-.044.576-.155,1.063.576,1.063,1.439,0,1.9-.8,1.9-2.169,0-1.086-.265-2.192-1.55-2.192-.818,0-.8.51-.841,1.195Z" transform="translate(-60.983 -79.96)" fill="#2e3192"/>
        <path id="Path_18" data-name="Path 18" d="M129.58,89.678c-.111-.244-.288-.929-.642-.929-.42,0-.575.575-1.151,1.992l-1.35,3.342c-.465,1.152-.686,1.97-2.126,1.97-1.239,0-1.572-.775-1.97-1.792l-4.118-10.515c-.619-1.594-1.5-.775-1.5-2.126,0-1.526,2.988-1.571,4.007-1.571,3.232,0,3.786.509,3.786,1.416,0,.665-.51.753-.51,1.439a11.86,11.86,0,0,0,.775,2.524c.111.354.6,1.9,1.107,1.9.576,0,1.041-1.594,1.151-1.926a3.943,3.943,0,0,0,.289-.863,3.482,3.482,0,0,0-1.13-1.948,1.219,1.219,0,0,1-.819-1.085c0-.133-.31-1.461,4.317-1.461,4.294,0,4.206,1,4.206,1.372,0,.731-1,.93-1,1.484a9.49,9.49,0,0,0,.974,2.457c.155.354.642,1.727,1.173,1.727.752,0,1.7-3.763,1.7-4.073,0-.952-1.438-.465-1.438-1.682,0-1.35,2.258-1.284,3.165-1.284s2.568.111,2.568,1.35c0,1.084-.929.8-1.528,2.346l-3.807,9.961c-.464,1.195-.974,2.346-2.235,2.346-1.107,0-1.462-.6-1.86-1.528Z" transform="translate(-67.138 -79.982)" fill="#2e3192"/>
        <path id="Path_19" data-name="Path 19" d="M150.672,87.858a13.923,13.923,0,0,0,1.594-5.224,2.393,2.393,0,0,1,2.678-2.678c1.926,0,3.144,1.97,4.007,3.431.376.642,3.719,7.416,4.516,9.231.731,1.682,1.926.663,1.926,1.926,0,1.616-3.144,1.549-4.25,1.549-3.165,0-5.069-.021-5.069-1.394,0-1.063,1.35-.664,1.35-1.439,0-1-.553-1.084-4.117-1.084-1.151,0-1.837.044-1.837,1.13,0,.862,1.417.287,1.417,1.438,0,1.329-2.391,1.35-3.277,1.35-3.165,0-3.453-.6-3.453-1.306,0-1.04,1.195-.731,1.837-1.528a12.819,12.819,0,0,0,1.285-2.367Zm4.648,1.594c.222,0,.885.044.885-.288a7.617,7.617,0,0,0-.818-1.792c-.2-.355-.576-1.174-1.063-1.174-.531,0-.907,1.329-1,1.572a7.711,7.711,0,0,0-.464,1.373c0,.376.553.31.8.31Z" transform="translate(-75.283 -79.956)" fill="#2e3192"/>
        <path id="Path_20" data-name="Path 20" d="M174.858,84.731c0-3.431-1.682-2.014-1.682-3.387,0-1.217,1.727-1.372,2.612-1.372.464,0,.908.044,1.372.065a13.45,13.45,0,0,0,1.35.09c.709,0,1.416-.044,2.148-.09.708-.021,1.439-.065,2.148-.065,2.5,0,5.4,1.107,5.4,4.05a3.477,3.477,0,0,1-1.881,3.21c-.2.111-.355.177-.355.443,0,.333.289.421.554.532,1.549.576,2.235,1.593,2.545,3.984.265,2.059,1.7.819,1.7,2.169,0,.841-1.019,1.727-3.52,1.727-3.542,0-3.985-2.038-4.671-4.959-.244-1.018-.619-2.014-1.837-2.014-.487,0-.665.067-.665,1.462a13.829,13.829,0,0,0,.156,2.147c.176,1.018,1.306.708,1.306,1.771,0,.8-.554,1.394-4.139,1.394-1.063,0-4.206,0-4.206-1.615,0-1.152,1.66-.354,1.66-3.232Zm5.135.974c-.044.576-.155,1.063.576,1.063,1.439,0,1.9-.8,1.9-2.169,0-1.086-.265-2.192-1.55-2.192-.818,0-.8.51-.841,1.195Z" transform="translate(-82.758 -79.96)" fill="#2e3192"/>
        <path id="Path_21" data-name="Path 21" d="M200.138,83.987c.044-2.281-1.616-1.174-1.616-2.613,0-1.018,1.283-1.173,2.059-1.173H207.8c6.154,0,8.168,3.807,8.168,7.792,0,4.118-2.413,7.991-8.013,7.991-.952,0-1.748-.022-2.435-.067-.686-.022-1.284-.044-1.9-.044s-1.262.022-1.881.044c-.62.044-1.241.067-1.881.067-.753,0-1.7-.376-1.7-1.262,0-1.594,1.749.177,1.816-3.055Zm5.313,8.1c0,1.129.177,1.594,1.373,1.594,2.789,0,3.275-2.856,3.275-5.07,0-5.18-1.948-6-3.652-6-.929,0-1,.376-1,1.217Z" transform="translate(-89.667 -80.024)" fill="#2e3192"/>
        <path id="Path_22" data-name="Path 22" d="M225.778,86.955c0-2.812-.221-3.453-.464-3.763-.509-.642-1.373-.708-1.373-1.549,0-1.594,4.516-1.594,4.959-1.594,1.327,0,4.05.045,4.05,1.55,0,.8-.841.753-1.35,1.329-.421.486-.443,2.478-.443,4.028v2.192c0,3.94.265,3.852.708,4.117.554.332,1.084.443,1.084,1.128,0,.664-.2,1.66-5.046,1.66-.93,0-3.72-.022-3.72-1.438,0-.709.753-.82,1.107-1.241.265-.31.487-1.128.487-4.227Z" transform="translate(-96.803 -79.981)" fill="#2e3192"/>
        <path id="Path_23" data-name="Path 23" d="M249.1,85.627c.266.221.974.864,1.373.864.554,0,.575-.908.575-1.285a7.568,7.568,0,0,0-.2-2.014c-.31-.929-1.483-.6-1.483-1.792,0-1.417,2.258-1.351,3.188-1.351.974,0,3.387-.111,3.387,1.417,0,1.261-1.173.8-1.549,1.816a10.534,10.534,0,0,0-.288,3.01v5.734c0,1,.133,4.028-1.35,4.028A1.826,1.826,0,0,1,251.6,95.5l-6.841-6.132c-.31-.288-.885-.82-1.35-.82-.686,0-.709,1.439-.709,1.9a10.084,10.084,0,0,0,.155,2.015c.333,1.416,1.506.885,1.506,1.97,0,1.483-2.281,1.615-3.321,1.615-1.018,0-3.3-.132-3.3-1.571,0-1.173,1.283-.708,1.5-2.125a23.8,23.8,0,0,0,.2-3.342,31.824,31.824,0,0,0-.243-4.8c-.354-2.213-1.948-1.35-1.948-2.678,0-1.572,2.988-1.484,3.984-1.484a2.875,2.875,0,0,1,2.612.975Z" transform="translate(-100.486 -79.981)" fill="#2e3192"/>
        <path id="Path_24" data-name="Path 24" d="M274.078,92.862a1.32,1.32,0,0,0,1.35-1.372c0-1.837-2.324-.044-2.324-2.082,0-1.616,3.342-1.727,4.471-1.727,4.162,0,4.405,1.174,4.405,1.816a1.138,1.138,0,0,1-1.018,1.063c-.575.066-.619.176-.775.752-.864,3.233-3.985,4.782-7.128,4.782-4.692,0-8.788-3.254-8.788-8.147,0-4.671,3.962-7.99,8.7-7.99a18.075,18.075,0,0,1,3.586.6c.4,0,.974-.331,1.373-.331,1.371,0,2.191,2.258,2.191,3.387,0,1.084-.553,2.191-1.749,2.191-2.191,0-2.191-3.076-5.2-3.076-1.926,0-3.165,1.594-3.165,3.94C270.006,91.224,272.662,92.862,274.078,92.862Z" transform="translate(-107.962 -79.956)" fill="#2e3192"/>
      </g>
    </g>
    <g id="salf_logo-2" data-name="salf logo" transform="translate(0 1.66)">
      <g id="Group_157" data-name="Group 157">
        <g id="Group_156" data-name="Group 156">
          <path id="Path_732" data-name="Path 732" d="M684.15,417.85h54l-1.76,4.44H685.9Z" transform="translate(-640.2 -354.18)" fill="#2e3192"/>
          <path id="Path_733" data-name="Path 733" d="M689.42,428.51l43.89-.45-3.51,4H692.49Z" transform="translate(-640.2 -354.18)" fill="#2e3192"/>
          <path id="Path_734" data-name="Path 734" d="M659.56,379.27l2.64,4h97.46l2.19-4H660" transform="translate(-640.2 -354.18)" fill="#2e3192"/>
          <path id="Path_735" data-name="Path 735" d="M664.39,389.23h93.08l-2.64,4.44H667Z" transform="translate(-640.2 -354.18)" fill="#2e3192"/>
          <path id="Path_736" data-name="Path 736" d="M670.1,398.66h82.1L750,403.1H672.73Z" transform="translate(-640.2 -354.18)" fill="#2e3192"/>
          <path id="Path_737" data-name="Path 737" d="M675.37,408h72l-2.64,4.45H678Z" transform="translate(-640.2 -354.18)" fill="#2e3192"/>
          <path id="Path_738" data-name="Path 738" d="M708.66,383H713v54.62l-4.38.45Z" transform="translate(-640.2 -354.18)" fill="#2e3192"/>
          <path id="Path_739" data-name="Path 739" d="M710.88,440.85a30.17,30.17,0,1,1,29.6-30.72c0,.19,0,.37,0,.56a29.92,29.92,0,0,1-29.6,30.16Zm0-56.93a26.77,26.77,0,1,0,26.26,27.29v-.52A26.55,26.55,0,0,0,710.88,383.92Z" transform="translate(-640.2 -354.18)" fill="#2e3192"/>
          <path id="Path_740" data-name="Path 740" d="M710.88,439.94c-8.26,0-14.73-12.92-14.73-29.39s6.47-29.4,14.73-29.4,14.73,12.92,14.73,29.4S719.14,439.94,710.88,439.94Zm0-55.39c-5.49,0-11.38,10.45-11.38,26s5.89,26,11.38,26,11.38-10.44,11.38-26S716.37,384.55,710.88,384.55Z" transform="translate(-640.2 -354.18)" fill="#2e3192"/>
        </g>
      </g>
      <g id="S_A_L" data-name="S A L">
        <text id="S_A_L-2" data-name="S A L" transform="translate(32.41 21.34)" fill="#2e3192" font-size="24.87" font-family="Arial-BoldMT, Arial" font-weight="700" letter-spacing="0.12em"><tspan x="0" y="0">S</tspan><tspan y="0" xml:space="preserve" letter-spacing="0.08em"> A </tspan><tspan y="0" letter-spacing="0.1em">L</tspan></text>
      </g>
      <g id="SERVICE_LOYALTY" data-name="SERVICE LOYALTY">
        <text id="SERVICE_LOYALTY-2" data-name="SERVICE &amp; LOYALTY" transform="translate(0 100.01)" fill="#2e3192" font-size="11.58" font-family="Arial-BoldMT, Arial" font-weight="700" letter-spacing="0.12em"><tspan x="0" y="0">SE</tspan><tspan y="0" letter-spacing="0.1em">R</tspan><tspan y="0">VICE &amp; LO</tspan><tspan y="0" letter-spacing="0.029em">Y</tspan><tspan y="0">A</tspan><tspan y="0" letter-spacing="0.04em">L</tspan><tspan y="0">T</tspan><tspan y="0" letter-spacing="0.1em">Y</tspan></text>
      </g>
    </g>
  </g>
</svg>
